<svg width="31" height="31" viewBox="0 0 31 31" fill="none" xmlns="http://www.w3.org/2000/svg">
<path d="M22.3843 10.3041C22.2316 9.88753 22.0353 9.60253 21.7299 9.2956C21.4245 8.98867 21.141 8.79135 20.7266 8.63789C20.4212 8.50635 19.9632 8.3748 19.1125 8.33096C18.1964 8.28711 17.9129 8.28711 15.579 8.28711C13.2452 8.28711 12.9616 8.28711 12.0455 8.33096C11.1949 8.3748 10.7368 8.50635 10.4315 8.63789C10.0171 8.79135 9.7335 8.98867 9.42814 9.2956C9.12277 9.60253 8.92647 9.88753 8.77379 10.3041C8.64292 10.611 8.51205 11.0714 8.46842 11.9264C8.4248 12.8472 8.4248 13.1322 8.4248 15.4781C8.4248 17.8239 8.4248 18.1089 8.46842 19.0297C8.51205 19.8847 8.64292 20.3451 8.77379 20.652C8.90466 21.0247 9.14458 21.3755 9.42814 21.6605C9.71169 21.9455 10.0607 22.1867 10.4315 22.3182C10.7368 22.4498 11.1949 22.5813 12.0455 22.6252C12.9616 22.669 13.2452 22.669 15.579 22.669C17.9129 22.669 18.1964 22.669 19.1125 22.6252C19.9632 22.5813 20.4212 22.4498 20.7266 22.3182C21.141 22.1648 21.4245 21.9675 21.7299 21.6605C22.0135 21.3755 22.2534 21.0247 22.3843 20.652C22.5151 20.3451 22.646 19.8847 22.6896 19.0297C22.7332 18.1089 22.7332 17.8239 22.7332 15.4781C22.7332 13.1322 22.7332 12.8472 22.6896 11.9264C22.646 11.0933 22.5151 10.611 22.3843 10.3041ZM15.579 20.0162C13.0925 20.0162 11.0858 17.9993 11.0858 15.5C11.0858 13.0007 13.0925 10.9837 15.579 10.9837C18.0656 10.9837 20.0722 13.0007 20.0722 15.5C20.0722 17.9993 18.0656 20.0162 15.579 20.0162ZM20.3122 11.9703C19.7232 11.9703 19.2434 11.488 19.2434 10.896C19.2434 10.3041 19.7232 9.82176 20.3122 9.82176C20.9011 9.82176 21.3809 10.3041 21.3809 10.896C21.3809 11.488 20.9011 11.9703 20.3122 11.9703Z" fill="white"/>
<path d="M15.579 12.5625C13.9649 12.5625 12.6562 13.8779 12.6562 15.5003C12.6562 17.1226 13.9649 18.438 15.579 18.438C17.1931 18.438 18.5018 17.1226 18.5018 15.5003C18.5018 13.8779 17.1931 12.5625 15.579 12.5625Z" fill="white"/>
<path d="M27.5754 0H3.56082C1.68502 0 0.158203 1.53465 0.158203 3.42009V27.558C0.158203 29.4434 1.68502 30.9781 3.56082 30.9781H27.5754C29.4512 30.9781 30.9781 29.4434 30.9781 27.558V3.42009C30.9999 1.53465 29.4731 0 27.5754 0ZM24.2601 19.1174C24.2164 20.0601 24.0638 20.6959 23.8456 21.244C23.6275 21.814 23.3222 22.3182 22.8423 22.8006C22.4061 23.239 21.8826 23.5898 21.2937 23.8091C20.7266 24.0283 20.094 24.1818 19.178 24.2256C18.2401 24.2694 17.9565 24.2694 15.579 24.2694C13.2016 24.2694 12.8962 24.2694 11.9801 24.2256C11.0422 24.1818 10.4097 24.0283 9.86438 23.8091C9.29728 23.5898 8.79562 23.2829 8.31576 22.8006C7.87953 22.3621 7.53054 21.8359 7.31242 21.244C7.09431 20.674 6.94163 20.0382 6.898 19.1174C6.85438 18.1747 6.85438 17.8897 6.85438 15.5C6.85438 13.1103 6.85438 12.8034 6.898 11.8826C6.94163 10.9399 7.09431 10.3041 7.31242 9.75601C7.53054 9.16407 7.87953 8.63791 8.31576 8.19944C8.75199 7.76096 9.27547 7.41018 9.86438 7.19095C10.4315 6.97171 11.064 6.81825 11.9801 6.7744C12.918 6.73055 13.2016 6.73055 15.579 6.73055C17.9565 6.73055 18.2619 6.73055 19.178 6.7744C20.1159 6.81825 20.7484 6.97171 21.2937 7.19095C21.8826 7.41018 22.4061 7.76096 22.8423 8.19944C23.2785 8.63791 23.6275 9.16407 23.8456 9.75601C24.0638 10.326 24.2164 10.9618 24.2601 11.8826C24.3037 12.8253 24.3037 13.1103 24.3037 15.5C24.3037 17.8897 24.3037 18.1966 24.2601 19.1174Z" fill="white"/>
</svg>
