<svg width="291" height="433" viewBox="0 0 291 433" fill="none" xmlns="http://www.w3.org/2000/svg">
<path d="M18.8648 2.24992C19.2758 2.24992 19.609 1.87721 19.609 1.41744C19.609 0.957674 19.2758 0.584961 18.8648 0.584961C18.4538 0.584961 18.1206 0.957674 18.1206 1.41744C18.1206 1.87721 18.4538 2.24992 18.8648 2.24992Z" fill="#00445C"/>
<path d="M41.4395 2.24992C41.8505 2.24992 42.1837 1.87721 42.1837 1.41744C42.1837 0.957674 41.8505 0.584961 41.4395 0.584961C41.0285 0.584961 40.6953 0.957674 40.6953 1.41744C40.6953 1.87721 41.0285 2.24992 41.4395 2.24992Z" fill="#00445C"/>
<path d="M64.0967 2.24992C64.5078 2.24992 64.841 1.87721 64.841 1.41744C64.841 0.957674 64.5078 0.584961 64.0967 0.584961C63.6857 0.584961 63.3525 0.957674 63.3525 1.41744C63.3525 1.87721 63.6857 2.24992 64.0967 2.24992Z" fill="#00445C"/>
<path d="M86.754 2.24992C87.165 2.24992 87.4982 1.87721 87.4982 1.41744C87.4982 0.957674 87.165 0.584961 86.754 0.584961C86.343 0.584961 86.0098 0.957674 86.0098 1.41744C86.0098 1.87721 86.343 2.24992 86.754 2.24992Z" fill="#00445C"/>
<path d="M109.329 2.24992C109.74 2.24992 110.073 1.87721 110.073 1.41744C110.073 0.957674 109.74 0.584961 109.329 0.584961C108.918 0.584961 108.584 0.957674 108.584 1.41744C108.584 1.87721 108.918 2.24992 109.329 2.24992Z" fill="#00445C"/>
<path d="M131.986 2.24992C132.397 2.24992 132.73 1.87721 132.73 1.41744C132.73 0.957674 132.397 0.584961 131.986 0.584961C131.575 0.584961 131.242 0.957674 131.242 1.41744C131.242 1.87721 131.575 2.24992 131.986 2.24992Z" fill="#00445C"/>
<path d="M154.56 2.24992C154.971 2.24992 155.304 1.87721 155.304 1.41744C155.304 0.957674 154.971 0.584961 154.56 0.584961C154.149 0.584961 153.816 0.957674 153.816 1.41744C153.816 1.87721 154.149 2.24992 154.56 2.24992Z" fill="#00445C"/>
<path d="M177.217 2.24992C177.628 2.24992 177.962 1.87721 177.962 1.41744C177.962 0.957674 177.628 0.584961 177.217 0.584961C176.806 0.584961 176.473 0.957674 176.473 1.41744C176.473 1.87721 176.806 2.24992 177.217 2.24992Z" fill="#00445C"/>
<path d="M199.792 2.24992C200.203 2.24992 200.536 1.87721 200.536 1.41744C200.536 0.957674 200.203 0.584961 199.792 0.584961C199.381 0.584961 199.048 0.957674 199.048 1.41744C199.048 1.87721 199.381 2.24992 199.792 2.24992Z" fill="#00445C"/>
<path d="M222.449 2.24992C222.86 2.24992 223.194 1.87721 223.194 1.41744C223.194 0.957674 222.86 0.584961 222.449 0.584961C222.038 0.584961 221.705 0.957674 221.705 1.41744C221.705 1.87721 222.038 2.24992 222.449 2.24992Z" fill="#00445C"/>
<path d="M245.024 2.24992C245.435 2.24992 245.768 1.87721 245.768 1.41744C245.768 0.957674 245.435 0.584961 245.024 0.584961C244.613 0.584961 244.28 0.957674 244.28 1.41744C244.28 1.87721 244.613 2.24992 245.024 2.24992Z" fill="#00445C"/>
<path d="M267.681 2.24992C268.092 2.24992 268.425 1.87721 268.425 1.41744C268.425 0.957674 268.092 0.584961 267.681 0.584961C267.27 0.584961 266.937 0.957674 266.937 1.41744C266.937 1.87721 267.27 2.24992 267.681 2.24992Z" fill="#00445C"/>
<path d="M290.256 2.24992C290.667 2.24992 291 1.87721 291 1.41744C291 0.957674 290.667 0.584961 290.256 0.584961C289.845 0.584961 289.512 0.957674 289.512 1.41744C289.512 1.87721 289.845 2.24992 290.256 2.24992Z" fill="#00445C"/>
<path d="M18.8648 27.5942C19.2758 27.5942 19.609 27.2214 19.609 26.7617C19.609 26.3019 19.2758 25.9292 18.8648 25.9292C18.4538 25.9292 18.1206 26.3019 18.1206 26.7617C18.1206 27.2214 18.4538 27.5942 18.8648 27.5942Z" fill="#00445C"/>
<path d="M41.4395 27.5942C41.8505 27.5942 42.1837 27.2214 42.1837 26.7617C42.1837 26.3019 41.8505 25.9292 41.4395 25.9292C41.0285 25.9292 40.6953 26.3019 40.6953 26.7617C40.6953 27.2214 41.0285 27.5942 41.4395 27.5942Z" fill="#00445C"/>
<path d="M64.0967 27.5942C64.5078 27.5942 64.841 27.2214 64.841 26.7617C64.841 26.3019 64.5078 25.9292 64.0967 25.9292C63.6857 25.9292 63.3525 26.3019 63.3525 26.7617C63.3525 27.2214 63.6857 27.5942 64.0967 27.5942Z" fill="#00445C"/>
<path d="M86.754 27.5942C87.165 27.5942 87.4982 27.2214 87.4982 26.7617C87.4982 26.3019 87.165 25.9292 86.754 25.9292C86.343 25.9292 86.0098 26.3019 86.0098 26.7617C86.0098 27.2214 86.343 27.5942 86.754 27.5942Z" fill="#00445C"/>
<path d="M109.329 27.5942C109.74 27.5942 110.073 27.2214 110.073 26.7617C110.073 26.3019 109.74 25.9292 109.329 25.9292C108.918 25.9292 108.584 26.3019 108.584 26.7617C108.584 27.2214 108.918 27.5942 109.329 27.5942Z" fill="#00445C"/>
<path d="M131.986 27.5942C132.397 27.5942 132.73 27.2214 132.73 26.7617C132.73 26.3019 132.397 25.9292 131.986 25.9292C131.575 25.9292 131.242 26.3019 131.242 26.7617C131.242 27.2214 131.575 27.5942 131.986 27.5942Z" fill="#00445C"/>
<path d="M154.56 27.5942C154.971 27.5942 155.304 27.2214 155.304 26.7617C155.304 26.3019 154.971 25.9292 154.56 25.9292C154.149 25.9292 153.816 26.3019 153.816 26.7617C153.816 27.2214 154.149 27.5942 154.56 27.5942Z" fill="#00445C"/>
<path d="M177.217 27.5942C177.628 27.5942 177.962 27.2214 177.962 26.7617C177.962 26.3019 177.628 25.9292 177.217 25.9292C176.806 25.9292 176.473 26.3019 176.473 26.7617C176.473 27.2214 176.806 27.5942 177.217 27.5942Z" fill="#00445C"/>
<path d="M199.792 27.5942C200.203 27.5942 200.536 27.2214 200.536 26.7617C200.536 26.3019 200.203 25.9292 199.792 25.9292C199.381 25.9292 199.048 26.3019 199.048 26.7617C199.048 27.2214 199.381 27.5942 199.792 27.5942Z" fill="#00445C"/>
<path d="M222.449 27.5942C222.86 27.5942 223.194 27.2214 223.194 26.7617C223.194 26.3019 222.86 25.9292 222.449 25.9292C222.038 25.9292 221.705 26.3019 221.705 26.7617C221.705 27.2214 222.038 27.5942 222.449 27.5942Z" fill="#00445C"/>
<path d="M245.024 27.5942C245.435 27.5942 245.768 27.2214 245.768 26.7617C245.768 26.3019 245.435 25.9292 245.024 25.9292C244.613 25.9292 244.28 26.3019 244.28 26.7617C244.28 27.2214 244.613 27.5942 245.024 27.5942Z" fill="#00445C"/>
<path d="M267.681 27.5942C268.092 27.5942 268.425 27.2214 268.425 26.7617C268.425 26.3019 268.092 25.9292 267.681 25.9292C267.27 25.9292 266.937 26.3019 266.937 26.7617C266.937 27.2214 267.27 27.5942 267.681 27.5942Z" fill="#00445C"/>
<path d="M290.256 27.5942C290.667 27.5942 291 27.2214 291 26.7617C291 26.3019 290.667 25.9292 290.256 25.9292C289.845 25.9292 289.512 26.3019 289.512 26.7617C289.512 27.2214 289.845 27.5942 290.256 27.5942Z" fill="#00445C"/>
<path d="M18.8648 52.8464C19.2758 52.8464 19.609 52.4736 19.609 52.0139C19.609 51.5541 19.2758 51.1814 18.8648 51.1814C18.4538 51.1814 18.1206 51.5541 18.1206 52.0139C18.1206 52.4736 18.4538 52.8464 18.8648 52.8464Z" fill="#00445C"/>
<path d="M41.4395 52.8464C41.8505 52.8464 42.1837 52.4736 42.1837 52.0139C42.1837 51.5541 41.8505 51.1814 41.4395 51.1814C41.0285 51.1814 40.6953 51.5541 40.6953 52.0139C40.6953 52.4736 41.0285 52.8464 41.4395 52.8464Z" fill="#00445C"/>
<path d="M64.0967 52.8464C64.5078 52.8464 64.841 52.4736 64.841 52.0139C64.841 51.5541 64.5078 51.1814 64.0967 51.1814C63.6857 51.1814 63.3525 51.5541 63.3525 52.0139C63.3525 52.4736 63.6857 52.8464 64.0967 52.8464Z" fill="#00445C"/>
<path d="M86.754 52.8464C87.165 52.8464 87.4982 52.4736 87.4982 52.0139C87.4982 51.5541 87.165 51.1814 86.754 51.1814C86.343 51.1814 86.0098 51.5541 86.0098 52.0139C86.0098 52.4736 86.343 52.8464 86.754 52.8464Z" fill="#00445C"/>
<path d="M109.329 52.8464C109.74 52.8464 110.073 52.4736 110.073 52.0139C110.073 51.5541 109.74 51.1814 109.329 51.1814C108.918 51.1814 108.584 51.5541 108.584 52.0139C108.584 52.4736 108.918 52.8464 109.329 52.8464Z" fill="#00445C"/>
<path d="M131.986 52.8464C132.397 52.8464 132.73 52.4736 132.73 52.0139C132.73 51.5541 132.397 51.1814 131.986 51.1814C131.575 51.1814 131.242 51.5541 131.242 52.0139C131.242 52.4736 131.575 52.8464 131.986 52.8464Z" fill="#00445C"/>
<path d="M154.56 52.8464C154.971 52.8464 155.304 52.4736 155.304 52.0139C155.304 51.5541 154.971 51.1814 154.56 51.1814C154.149 51.1814 153.816 51.5541 153.816 52.0139C153.816 52.4736 154.149 52.8464 154.56 52.8464Z" fill="#00445C"/>
<path d="M177.217 52.8464C177.628 52.8464 177.962 52.4736 177.962 52.0139C177.962 51.5541 177.628 51.1814 177.217 51.1814C176.806 51.1814 176.473 51.5541 176.473 52.0139C176.473 52.4736 176.806 52.8464 177.217 52.8464Z" fill="#00445C"/>
<path d="M199.792 52.8464C200.203 52.8464 200.536 52.4736 200.536 52.0139C200.536 51.5541 200.203 51.1814 199.792 51.1814C199.381 51.1814 199.048 51.5541 199.048 52.0139C199.048 52.4736 199.381 52.8464 199.792 52.8464Z" fill="#00445C"/>
<path d="M222.449 52.8464C222.86 52.8464 223.194 52.4736 223.194 52.0139C223.194 51.5541 222.86 51.1814 222.449 51.1814C222.038 51.1814 221.705 51.5541 221.705 52.0139C221.705 52.4736 222.038 52.8464 222.449 52.8464Z" fill="#00445C"/>
<path d="M245.024 52.8464C245.435 52.8464 245.768 52.4736 245.768 52.0139C245.768 51.5541 245.435 51.1814 245.024 51.1814C244.613 51.1814 244.28 51.5541 244.28 52.0139C244.28 52.4736 244.613 52.8464 245.024 52.8464Z" fill="#00445C"/>
<path d="M267.681 52.8464C268.092 52.8464 268.425 52.4736 268.425 52.0139C268.425 51.5541 268.092 51.1814 267.681 51.1814C267.27 51.1814 266.937 51.5541 266.937 52.0139C266.937 52.4736 267.27 52.8464 267.681 52.8464Z" fill="#00445C"/>
<path d="M290.256 52.8464C290.667 52.8464 291 52.4736 291 52.0139C291 51.5541 290.667 51.1814 290.256 51.1814C289.845 51.1814 289.512 51.5541 289.512 52.0139C289.512 52.4736 289.845 52.8464 290.256 52.8464Z" fill="#00445C"/>
<path d="M18.8648 78.1906C19.2758 78.1906 19.609 77.8179 19.609 77.3581C19.609 76.8983 19.2758 76.5256 18.8648 76.5256C18.4538 76.5256 18.1206 76.8983 18.1206 77.3581C18.1206 77.8179 18.4538 78.1906 18.8648 78.1906Z" fill="#00445C"/>
<path d="M41.4395 78.1906C41.8505 78.1906 42.1837 77.8179 42.1837 77.3581C42.1837 76.8983 41.8505 76.5256 41.4395 76.5256C41.0285 76.5256 40.6953 76.8983 40.6953 77.3581C40.6953 77.8179 41.0285 78.1906 41.4395 78.1906Z" fill="#00445C"/>
<path d="M64.0967 78.1906C64.5078 78.1906 64.841 77.8179 64.841 77.3581C64.841 76.8983 64.5078 76.5256 64.0967 76.5256C63.6857 76.5256 63.3525 76.8983 63.3525 77.3581C63.3525 77.8179 63.6857 78.1906 64.0967 78.1906Z" fill="#00445C"/>
<path d="M86.754 78.1906C87.165 78.1906 87.4982 77.8179 87.4982 77.3581C87.4982 76.8983 87.165 76.5256 86.754 76.5256C86.343 76.5256 86.0098 76.8983 86.0098 77.3581C86.0098 77.8179 86.343 78.1906 86.754 78.1906Z" fill="#00445C"/>
<path d="M109.329 78.1906C109.74 78.1906 110.073 77.8179 110.073 77.3581C110.073 76.8983 109.74 76.5256 109.329 76.5256C108.918 76.5256 108.584 76.8983 108.584 77.3581C108.584 77.8179 108.918 78.1906 109.329 78.1906Z" fill="#00445C"/>
<path d="M131.986 78.1906C132.397 78.1906 132.73 77.8179 132.73 77.3581C132.73 76.8983 132.397 76.5256 131.986 76.5256C131.575 76.5256 131.242 76.8983 131.242 77.3581C131.242 77.8179 131.575 78.1906 131.986 78.1906Z" fill="#00445C"/>
<path d="M154.56 78.1906C154.971 78.1906 155.304 77.8179 155.304 77.3581C155.304 76.8983 154.971 76.5256 154.56 76.5256C154.149 76.5256 153.816 76.8983 153.816 77.3581C153.816 77.8179 154.149 78.1906 154.56 78.1906Z" fill="#00445C"/>
<path d="M177.217 78.1906C177.628 78.1906 177.962 77.8179 177.962 77.3581C177.962 76.8983 177.628 76.5256 177.217 76.5256C176.806 76.5256 176.473 76.8983 176.473 77.3581C176.473 77.8179 176.806 78.1906 177.217 78.1906Z" fill="#00445C"/>
<path d="M199.792 78.1906C200.203 78.1906 200.536 77.8179 200.536 77.3581C200.536 76.8983 200.203 76.5256 199.792 76.5256C199.381 76.5256 199.048 76.8983 199.048 77.3581C199.048 77.8179 199.381 78.1906 199.792 78.1906Z" fill="#00445C"/>
<path d="M222.449 78.1906C222.86 78.1906 223.194 77.8179 223.194 77.3581C223.194 76.8983 222.86 76.5256 222.449 76.5256C222.038 76.5256 221.705 76.8983 221.705 77.3581C221.705 77.8179 222.038 78.1906 222.449 78.1906Z" fill="#00445C"/>
<path d="M245.024 78.1906C245.435 78.1906 245.768 77.8179 245.768 77.3581C245.768 76.8983 245.435 76.5256 245.024 76.5256C244.613 76.5256 244.28 76.8983 244.28 77.3581C244.28 77.8179 244.613 78.1906 245.024 78.1906Z" fill="#00445C"/>
<path d="M267.681 78.1906C268.092 78.1906 268.425 77.8179 268.425 77.3581C268.425 76.8983 268.092 76.5256 267.681 76.5256C267.27 76.5256 266.937 76.8983 266.937 77.3581C266.937 77.8179 267.27 78.1906 267.681 78.1906Z" fill="#00445C"/>
<path d="M290.256 78.1906C290.667 78.1906 291 77.8179 291 77.3581C291 76.8983 290.667 76.5256 290.256 76.5256C289.845 76.5256 289.512 76.8983 289.512 77.3581C289.512 77.8179 289.845 78.1906 290.256 78.1906Z" fill="#00445C"/>
<path d="M18.8648 103.442C19.2758 103.442 19.609 103.07 19.609 102.61C19.609 102.15 19.2758 101.777 18.8648 101.777C18.4538 101.777 18.1206 102.15 18.1206 102.61C18.1206 103.07 18.4538 103.442 18.8648 103.442Z" fill="#00445C"/>
<path d="M41.4395 103.442C41.8505 103.442 42.1837 103.07 42.1837 102.61C42.1837 102.15 41.8505 101.777 41.4395 101.777C41.0285 101.777 40.6953 102.15 40.6953 102.61C40.6953 103.07 41.0285 103.442 41.4395 103.442Z" fill="#00445C"/>
<path d="M64.0967 103.442C64.5078 103.442 64.841 103.07 64.841 102.61C64.841 102.15 64.5078 101.777 64.0967 101.777C63.6857 101.777 63.3525 102.15 63.3525 102.61C63.3525 103.07 63.6857 103.442 64.0967 103.442Z" fill="#00445C"/>
<path d="M86.754 103.442C87.165 103.442 87.4982 103.07 87.4982 102.61C87.4982 102.15 87.165 101.777 86.754 101.777C86.343 101.777 86.0098 102.15 86.0098 102.61C86.0098 103.07 86.343 103.442 86.754 103.442Z" fill="#00445C"/>
<path d="M109.329 103.442C109.74 103.442 110.073 103.07 110.073 102.61C110.073 102.15 109.74 101.777 109.329 101.777C108.918 101.777 108.584 102.15 108.584 102.61C108.584 103.07 108.918 103.442 109.329 103.442Z" fill="#00445C"/>
<path d="M131.986 103.442C132.397 103.442 132.73 103.07 132.73 102.61C132.73 102.15 132.397 101.777 131.986 101.777C131.575 101.777 131.242 102.15 131.242 102.61C131.242 103.07 131.575 103.442 131.986 103.442Z" fill="#00445C"/>
<path d="M154.56 103.442C154.971 103.442 155.304 103.07 155.304 102.61C155.304 102.15 154.971 101.777 154.56 101.777C154.149 101.777 153.816 102.15 153.816 102.61C153.816 103.07 154.149 103.442 154.56 103.442Z" fill="#00445C"/>
<path d="M177.217 103.442C177.628 103.442 177.962 103.07 177.962 102.61C177.962 102.15 177.628 101.777 177.217 101.777C176.806 101.777 176.473 102.15 176.473 102.61C176.473 103.07 176.806 103.442 177.217 103.442Z" fill="#00445C"/>
<path d="M199.792 103.442C200.203 103.442 200.536 103.07 200.536 102.61C200.536 102.15 200.203 101.777 199.792 101.777C199.381 101.777 199.048 102.15 199.048 102.61C199.048 103.07 199.381 103.442 199.792 103.442Z" fill="#00445C"/>
<path d="M222.449 103.442C222.86 103.442 223.194 103.07 223.194 102.61C223.194 102.15 222.86 101.777 222.449 101.777C222.038 101.777 221.705 102.15 221.705 102.61C221.705 103.07 222.038 103.442 222.449 103.442Z" fill="#00445C"/>
<path d="M245.024 103.442C245.435 103.442 245.768 103.07 245.768 102.61C245.768 102.15 245.435 101.777 245.024 101.777C244.613 101.777 244.28 102.15 244.28 102.61C244.28 103.07 244.613 103.442 245.024 103.442Z" fill="#00445C"/>
<path d="M267.681 103.442C268.092 103.442 268.425 103.07 268.425 102.61C268.425 102.15 268.092 101.777 267.681 101.777C267.27 101.777 266.937 102.15 266.937 102.61C266.937 103.07 267.27 103.442 267.681 103.442Z" fill="#00445C"/>
<path d="M290.256 103.442C290.667 103.442 291 103.07 291 102.61C291 102.15 290.667 101.777 290.256 101.777C289.845 101.777 289.512 102.15 289.512 102.61C289.512 103.07 289.845 103.442 290.256 103.442Z" fill="#00445C"/>
<path d="M18.8648 128.787C19.2758 128.787 19.609 128.414 19.609 127.954C19.609 127.494 19.2758 127.122 18.8648 127.122C18.4538 127.122 18.1206 127.494 18.1206 127.954C18.1206 128.414 18.4538 128.787 18.8648 128.787Z" fill="#00445C"/>
<path d="M41.4395 128.787C41.8505 128.787 42.1837 128.414 42.1837 127.954C42.1837 127.494 41.8505 127.122 41.4395 127.122C41.0285 127.122 40.6953 127.494 40.6953 127.954C40.6953 128.414 41.0285 128.787 41.4395 128.787Z" fill="#00445C"/>
<path d="M64.0967 128.787C64.5078 128.787 64.841 128.414 64.841 127.954C64.841 127.494 64.5078 127.122 64.0967 127.122C63.6857 127.122 63.3525 127.494 63.3525 127.954C63.3525 128.414 63.6857 128.787 64.0967 128.787Z" fill="#00445C"/>
<path d="M86.754 128.787C87.165 128.787 87.4982 128.414 87.4982 127.954C87.4982 127.494 87.165 127.122 86.754 127.122C86.343 127.122 86.0098 127.494 86.0098 127.954C86.0098 128.414 86.343 128.787 86.754 128.787Z" fill="#00445C"/>
<path d="M109.329 128.787C109.74 128.787 110.073 128.414 110.073 127.954C110.073 127.494 109.74 127.122 109.329 127.122C108.918 127.122 108.584 127.494 108.584 127.954C108.584 128.414 108.918 128.787 109.329 128.787Z" fill="#00445C"/>
<path d="M131.986 128.787C132.397 128.787 132.73 128.414 132.73 127.954C132.73 127.494 132.397 127.122 131.986 127.122C131.575 127.122 131.242 127.494 131.242 127.954C131.242 128.414 131.575 128.787 131.986 128.787Z" fill="#00445C"/>
<path d="M154.56 128.787C154.971 128.787 155.304 128.414 155.304 127.954C155.304 127.494 154.971 127.122 154.56 127.122C154.149 127.122 153.816 127.494 153.816 127.954C153.816 128.414 154.149 128.787 154.56 128.787Z" fill="#00445C"/>
<path d="M177.217 128.787C177.628 128.787 177.962 128.414 177.962 127.954C177.962 127.494 177.628 127.122 177.217 127.122C176.806 127.122 176.473 127.494 176.473 127.954C176.473 128.414 176.806 128.787 177.217 128.787Z" fill="#00445C"/>
<path d="M199.792 128.787C200.203 128.787 200.536 128.414 200.536 127.954C200.536 127.494 200.203 127.122 199.792 127.122C199.381 127.122 199.048 127.494 199.048 127.954C199.048 128.414 199.381 128.787 199.792 128.787Z" fill="#00445C"/>
<path d="M222.449 128.787C222.86 128.787 223.194 128.414 223.194 127.954C223.194 127.494 222.86 127.122 222.449 127.122C222.038 127.122 221.705 127.494 221.705 127.954C221.705 128.414 222.038 128.787 222.449 128.787Z" fill="#00445C"/>
<path d="M245.024 128.787C245.435 128.787 245.768 128.414 245.768 127.954C245.768 127.494 245.435 127.122 245.024 127.122C244.613 127.122 244.28 127.494 244.28 127.954C244.28 128.414 244.613 128.787 245.024 128.787Z" fill="#00445C"/>
<path d="M267.681 128.787C268.092 128.787 268.425 128.414 268.425 127.954C268.425 127.494 268.092 127.122 267.681 127.122C267.27 127.122 266.937 127.494 266.937 127.954C266.937 128.414 267.27 128.787 267.681 128.787Z" fill="#00445C"/>
<path d="M290.256 128.787C290.667 128.787 291 128.414 291 127.954C291 127.494 290.667 127.122 290.256 127.122C289.845 127.122 289.512 127.494 289.512 127.954C289.512 128.414 289.845 128.787 290.256 128.787Z" fill="#00445C"/>
<path d="M18.8648 154.039C19.2758 154.039 19.609 153.666 19.609 153.206C19.609 152.746 19.2758 152.374 18.8648 152.374C18.4538 152.374 18.1206 152.746 18.1206 153.206C18.1206 153.666 18.4538 154.039 18.8648 154.039Z" fill="#00445C"/>
<path d="M41.4395 154.039C41.8505 154.039 42.1837 153.666 42.1837 153.206C42.1837 152.746 41.8505 152.374 41.4395 152.374C41.0285 152.374 40.6953 152.746 40.6953 153.206C40.6953 153.666 41.0285 154.039 41.4395 154.039Z" fill="#00445C"/>
<path d="M64.0967 154.039C64.5078 154.039 64.841 153.666 64.841 153.206C64.841 152.746 64.5078 152.374 64.0967 152.374C63.6857 152.374 63.3525 152.746 63.3525 153.206C63.3525 153.666 63.6857 154.039 64.0967 154.039Z" fill="#00445C"/>
<path d="M86.754 154.039C87.165 154.039 87.4982 153.666 87.4982 153.206C87.4982 152.746 87.165 152.374 86.754 152.374C86.343 152.374 86.0098 152.746 86.0098 153.206C86.0098 153.666 86.343 154.039 86.754 154.039Z" fill="#00445C"/>
<path d="M109.329 154.039C109.74 154.039 110.073 153.666 110.073 153.206C110.073 152.746 109.74 152.374 109.329 152.374C108.918 152.374 108.584 152.746 108.584 153.206C108.584 153.666 108.918 154.039 109.329 154.039Z" fill="#00445C"/>
<path d="M131.986 154.039C132.397 154.039 132.73 153.666 132.73 153.206C132.73 152.746 132.397 152.374 131.986 152.374C131.575 152.374 131.242 152.746 131.242 153.206C131.242 153.666 131.575 154.039 131.986 154.039Z" fill="#00445C"/>
<path d="M154.56 154.039C154.971 154.039 155.304 153.666 155.304 153.206C155.304 152.746 154.971 152.374 154.56 152.374C154.149 152.374 153.816 152.746 153.816 153.206C153.816 153.666 154.149 154.039 154.56 154.039Z" fill="#00445C"/>
<path d="M177.217 154.039C177.628 154.039 177.962 153.666 177.962 153.206C177.962 152.746 177.628 152.374 177.217 152.374C176.806 152.374 176.473 152.746 176.473 153.206C176.473 153.666 176.806 154.039 177.217 154.039Z" fill="#00445C"/>
<path d="M199.792 154.039C200.203 154.039 200.536 153.666 200.536 153.206C200.536 152.746 200.203 152.374 199.792 152.374C199.381 152.374 199.048 152.746 199.048 153.206C199.048 153.666 199.381 154.039 199.792 154.039Z" fill="#00445C"/>
<path d="M222.449 154.039C222.86 154.039 223.194 153.666 223.194 153.206C223.194 152.746 222.86 152.374 222.449 152.374C222.038 152.374 221.705 152.746 221.705 153.206C221.705 153.666 222.038 154.039 222.449 154.039Z" fill="#00445C"/>
<path d="M245.024 154.039C245.435 154.039 245.768 153.666 245.768 153.206C245.768 152.746 245.435 152.374 245.024 152.374C244.613 152.374 244.28 152.746 244.28 153.206C244.28 153.666 244.613 154.039 245.024 154.039Z" fill="#00445C"/>
<path d="M267.681 154.039C268.092 154.039 268.425 153.666 268.425 153.206C268.425 152.746 268.092 152.374 267.681 152.374C267.27 152.374 266.937 152.746 266.937 153.206C266.937 153.666 267.27 154.039 267.681 154.039Z" fill="#00445C"/>
<path d="M290.256 154.039C290.667 154.039 291 153.666 291 153.206C291 152.746 290.667 152.374 290.256 152.374C289.845 152.374 289.512 152.746 289.512 153.206C289.512 153.666 289.845 154.039 290.256 154.039Z" fill="#00445C"/>
<path d="M18.8648 179.383C19.2758 179.383 19.609 179.01 19.609 178.55C19.609 178.091 19.2758 177.718 18.8648 177.718C18.4538 177.718 18.1206 178.091 18.1206 178.55C18.1206 179.01 18.4538 179.383 18.8648 179.383Z" fill="#00445C"/>
<path d="M41.4395 179.383C41.8505 179.383 42.1837 179.01 42.1837 178.55C42.1837 178.091 41.8505 177.718 41.4395 177.718C41.0285 177.718 40.6953 178.091 40.6953 178.55C40.6953 179.01 41.0285 179.383 41.4395 179.383Z" fill="#00445C"/>
<path d="M64.0967 179.383C64.5078 179.383 64.841 179.01 64.841 178.55C64.841 178.091 64.5078 177.718 64.0967 177.718C63.6857 177.718 63.3525 178.091 63.3525 178.55C63.3525 179.01 63.6857 179.383 64.0967 179.383Z" fill="#00445C"/>
<path d="M86.754 179.383C87.165 179.383 87.4982 179.01 87.4982 178.55C87.4982 178.091 87.165 177.718 86.754 177.718C86.343 177.718 86.0098 178.091 86.0098 178.55C86.0098 179.01 86.343 179.383 86.754 179.383Z" fill="#00445C"/>
<path d="M109.329 179.383C109.74 179.383 110.073 179.01 110.073 178.55C110.073 178.091 109.74 177.718 109.329 177.718C108.918 177.718 108.584 178.091 108.584 178.55C108.584 179.01 108.918 179.383 109.329 179.383Z" fill="#00445C"/>
<path d="M131.986 179.383C132.397 179.383 132.73 179.01 132.73 178.55C132.73 178.091 132.397 177.718 131.986 177.718C131.575 177.718 131.242 178.091 131.242 178.55C131.242 179.01 131.575 179.383 131.986 179.383Z" fill="#00445C"/>
<path d="M154.56 179.383C154.971 179.383 155.304 179.01 155.304 178.55C155.304 178.091 154.971 177.718 154.56 177.718C154.149 177.718 153.816 178.091 153.816 178.55C153.816 179.01 154.149 179.383 154.56 179.383Z" fill="#00445C"/>
<path d="M177.217 179.383C177.628 179.383 177.962 179.01 177.962 178.55C177.962 178.091 177.628 177.718 177.217 177.718C176.806 177.718 176.473 178.091 176.473 178.55C176.473 179.01 176.806 179.383 177.217 179.383Z" fill="#00445C"/>
<path d="M199.792 179.383C200.203 179.383 200.536 179.01 200.536 178.55C200.536 178.091 200.203 177.718 199.792 177.718C199.381 177.718 199.048 178.091 199.048 178.55C199.048 179.01 199.381 179.383 199.792 179.383Z" fill="#00445C"/>
<path d="M222.449 179.383C222.86 179.383 223.194 179.01 223.194 178.55C223.194 178.091 222.86 177.718 222.449 177.718C222.038 177.718 221.705 178.091 221.705 178.55C221.705 179.01 222.038 179.383 222.449 179.383Z" fill="#00445C"/>
<path d="M245.024 179.383C245.435 179.383 245.768 179.01 245.768 178.55C245.768 178.091 245.435 177.718 245.024 177.718C244.613 177.718 244.28 178.091 244.28 178.55C244.28 179.01 244.613 179.383 245.024 179.383Z" fill="#00445C"/>
<path d="M267.681 179.383C268.092 179.383 268.425 179.01 268.425 178.55C268.425 178.091 268.092 177.718 267.681 177.718C267.27 177.718 266.937 178.091 266.937 178.55C266.937 179.01 267.27 179.383 267.681 179.383Z" fill="#00445C"/>
<path d="M290.256 179.383C290.667 179.383 291 179.01 291 178.55C291 178.091 290.667 177.718 290.256 177.718C289.845 177.718 289.512 178.091 289.512 178.55C289.512 179.01 289.845 179.383 290.256 179.383Z" fill="#00445C"/>
<path d="M18.8648 204.727C19.2758 204.727 19.609 204.355 19.609 203.895C19.609 203.435 19.2758 203.062 18.8648 203.062C18.4538 203.062 18.1206 203.435 18.1206 203.895C18.1206 204.355 18.4538 204.727 18.8648 204.727Z" fill="#00445C"/>
<path d="M41.4395 204.727C41.8505 204.727 42.1837 204.355 42.1837 203.895C42.1837 203.435 41.8505 203.062 41.4395 203.062C41.0285 203.062 40.6953 203.435 40.6953 203.895C40.6953 204.355 41.0285 204.727 41.4395 204.727Z" fill="#00445C"/>
<path d="M64.0967 204.727C64.5078 204.727 64.841 204.355 64.841 203.895C64.841 203.435 64.5078 203.062 64.0967 203.062C63.6857 203.062 63.3525 203.435 63.3525 203.895C63.3525 204.355 63.6857 204.727 64.0967 204.727Z" fill="#00445C"/>
<path d="M86.754 204.727C87.165 204.727 87.4982 204.355 87.4982 203.895C87.4982 203.435 87.165 203.062 86.754 203.062C86.343 203.062 86.0098 203.435 86.0098 203.895C86.0098 204.355 86.343 204.727 86.754 204.727Z" fill="#00445C"/>
<path d="M109.329 204.727C109.74 204.727 110.073 204.355 110.073 203.895C110.073 203.435 109.74 203.062 109.329 203.062C108.918 203.062 108.584 203.435 108.584 203.895C108.584 204.355 108.918 204.727 109.329 204.727Z" fill="#00445C"/>
<path d="M131.986 204.727C132.397 204.727 132.73 204.355 132.73 203.895C132.73 203.435 132.397 203.062 131.986 203.062C131.575 203.062 131.242 203.435 131.242 203.895C131.242 204.355 131.575 204.727 131.986 204.727Z" fill="#00445C"/>
<path d="M154.56 204.727C154.971 204.727 155.304 204.355 155.304 203.895C155.304 203.435 154.971 203.062 154.56 203.062C154.149 203.062 153.816 203.435 153.816 203.895C153.816 204.355 154.149 204.727 154.56 204.727Z" fill="#00445C"/>
<path d="M177.217 204.727C177.628 204.727 177.962 204.355 177.962 203.895C177.962 203.435 177.628 203.062 177.217 203.062C176.806 203.062 176.473 203.435 176.473 203.895C176.473 204.355 176.806 204.727 177.217 204.727Z" fill="#00445C"/>
<path d="M199.792 204.727C200.203 204.727 200.536 204.355 200.536 203.895C200.536 203.435 200.203 203.062 199.792 203.062C199.381 203.062 199.048 203.435 199.048 203.895C199.048 204.355 199.381 204.727 199.792 204.727Z" fill="#00445C"/>
<path d="M222.449 204.727C222.86 204.727 223.194 204.355 223.194 203.895C223.194 203.435 222.86 203.062 222.449 203.062C222.038 203.062 221.705 203.435 221.705 203.895C221.705 204.355 222.038 204.727 222.449 204.727Z" fill="#00445C"/>
<path d="M245.024 204.727C245.435 204.727 245.768 204.355 245.768 203.895C245.768 203.435 245.435 203.062 245.024 203.062C244.613 203.062 244.28 203.435 244.28 203.895C244.28 204.355 244.613 204.727 245.024 204.727Z" fill="#00445C"/>
<path d="M267.681 204.727C268.092 204.727 268.425 204.355 268.425 203.895C268.425 203.435 268.092 203.062 267.681 203.062C267.27 203.062 266.937 203.435 266.937 203.895C266.937 204.355 267.27 204.727 267.681 204.727Z" fill="#00445C"/>
<path d="M290.256 204.727C290.667 204.727 291 204.355 291 203.895C291 203.435 290.667 203.062 290.256 203.062C289.845 203.062 289.512 203.435 289.512 203.895C289.512 204.355 289.845 204.727 290.256 204.727Z" fill="#00445C"/>
<path d="M18.8648 229.979C19.2758 229.979 19.609 229.607 19.609 229.147C19.609 228.687 19.2758 228.314 18.8648 228.314C18.4538 228.314 18.1206 228.687 18.1206 229.147C18.1206 229.607 18.4538 229.979 18.8648 229.979Z" fill="#00445C"/>
<path d="M41.4395 229.979C41.8505 229.979 42.1837 229.607 42.1837 229.147C42.1837 228.687 41.8505 228.314 41.4395 228.314C41.0285 228.314 40.6953 228.687 40.6953 229.147C40.6953 229.607 41.0285 229.979 41.4395 229.979Z" fill="#00445C"/>
<path d="M64.0967 229.979C64.5078 229.979 64.841 229.607 64.841 229.147C64.841 228.687 64.5078 228.314 64.0967 228.314C63.6857 228.314 63.3525 228.687 63.3525 229.147C63.3525 229.607 63.6857 229.979 64.0967 229.979Z" fill="#00445C"/>
<path d="M86.754 229.979C87.165 229.979 87.4982 229.607 87.4982 229.147C87.4982 228.687 87.165 228.314 86.754 228.314C86.343 228.314 86.0098 228.687 86.0098 229.147C86.0098 229.607 86.343 229.979 86.754 229.979Z" fill="#00445C"/>
<path d="M109.329 229.979C109.74 229.979 110.073 229.607 110.073 229.147C110.073 228.687 109.74 228.314 109.329 228.314C108.918 228.314 108.584 228.687 108.584 229.147C108.584 229.607 108.918 229.979 109.329 229.979Z" fill="#00445C"/>
<path d="M131.986 229.979C132.397 229.979 132.73 229.607 132.73 229.147C132.73 228.687 132.397 228.314 131.986 228.314C131.575 228.314 131.242 228.687 131.242 229.147C131.242 229.607 131.575 229.979 131.986 229.979Z" fill="#00445C"/>
<path d="M154.56 229.979C154.971 229.979 155.304 229.607 155.304 229.147C155.304 228.687 154.971 228.314 154.56 228.314C154.149 228.314 153.816 228.687 153.816 229.147C153.816 229.607 154.149 229.979 154.56 229.979Z" fill="#00445C"/>
<path d="M177.217 229.979C177.628 229.979 177.962 229.607 177.962 229.147C177.962 228.687 177.628 228.314 177.217 228.314C176.806 228.314 176.473 228.687 176.473 229.147C176.473 229.607 176.806 229.979 177.217 229.979Z" fill="#00445C"/>
<path d="M199.792 229.979C200.203 229.979 200.536 229.607 200.536 229.147C200.536 228.687 200.203 228.314 199.792 228.314C199.381 228.314 199.048 228.687 199.048 229.147C199.048 229.607 199.381 229.979 199.792 229.979Z" fill="#00445C"/>
<path d="M222.449 229.979C222.86 229.979 223.194 229.607 223.194 229.147C223.194 228.687 222.86 228.314 222.449 228.314C222.038 228.314 221.705 228.687 221.705 229.147C221.705 229.607 222.038 229.979 222.449 229.979Z" fill="#00445C"/>
<path d="M245.024 229.979C245.435 229.979 245.768 229.607 245.768 229.147C245.768 228.687 245.435 228.314 245.024 228.314C244.613 228.314 244.28 228.687 244.28 229.147C244.28 229.607 244.613 229.979 245.024 229.979Z" fill="#00445C"/>
<path d="M267.681 229.979C268.092 229.979 268.425 229.607 268.425 229.147C268.425 228.687 268.092 228.314 267.681 228.314C267.27 228.314 266.937 228.687 266.937 229.147C266.937 229.607 267.27 229.979 267.681 229.979Z" fill="#00445C"/>
<path d="M290.256 229.979C290.667 229.979 291 229.607 291 229.147C291 228.687 290.667 228.314 290.256 228.314C289.845 228.314 289.512 228.687 289.512 229.147C289.512 229.607 289.845 229.979 290.256 229.979Z" fill="#00445C"/>
<path d="M18.8648 255.324C19.2758 255.324 19.609 254.951 19.609 254.491C19.609 254.031 19.2758 253.659 18.8648 253.659C18.4538 253.659 18.1206 254.031 18.1206 254.491C18.1206 254.951 18.4538 255.324 18.8648 255.324Z" fill="#00445C"/>
<path d="M41.4395 255.324C41.8505 255.324 42.1837 254.951 42.1837 254.491C42.1837 254.031 41.8505 253.659 41.4395 253.659C41.0285 253.659 40.6953 254.031 40.6953 254.491C40.6953 254.951 41.0285 255.324 41.4395 255.324Z" fill="#00445C"/>
<path d="M64.0967 255.324C64.5078 255.324 64.841 254.951 64.841 254.491C64.841 254.031 64.5078 253.659 64.0967 253.659C63.6857 253.659 63.3525 254.031 63.3525 254.491C63.3525 254.951 63.6857 255.324 64.0967 255.324Z" fill="#00445C"/>
<path d="M86.754 255.324C87.165 255.324 87.4982 254.951 87.4982 254.491C87.4982 254.031 87.165 253.659 86.754 253.659C86.343 253.659 86.0098 254.031 86.0098 254.491C86.0098 254.951 86.343 255.324 86.754 255.324Z" fill="#00445C"/>
<path d="M109.329 255.324C109.74 255.324 110.073 254.951 110.073 254.491C110.073 254.031 109.74 253.659 109.329 253.659C108.918 253.659 108.584 254.031 108.584 254.491C108.584 254.951 108.918 255.324 109.329 255.324Z" fill="#00445C"/>
<path d="M131.986 255.324C132.397 255.324 132.73 254.951 132.73 254.491C132.73 254.031 132.397 253.659 131.986 253.659C131.575 253.659 131.242 254.031 131.242 254.491C131.242 254.951 131.575 255.324 131.986 255.324Z" fill="#00445C"/>
<path d="M154.56 255.324C154.971 255.324 155.304 254.951 155.304 254.491C155.304 254.031 154.971 253.659 154.56 253.659C154.149 253.659 153.816 254.031 153.816 254.491C153.816 254.951 154.149 255.324 154.56 255.324Z" fill="#00445C"/>
<path d="M177.217 255.324C177.628 255.324 177.962 254.951 177.962 254.491C177.962 254.031 177.628 253.659 177.217 253.659C176.806 253.659 176.473 254.031 176.473 254.491C176.473 254.951 176.806 255.324 177.217 255.324Z" fill="#00445C"/>
<path d="M199.792 255.324C200.203 255.324 200.536 254.951 200.536 254.491C200.536 254.031 200.203 253.659 199.792 253.659C199.381 253.659 199.048 254.031 199.048 254.491C199.048 254.951 199.381 255.324 199.792 255.324Z" fill="#00445C"/>
<path d="M222.449 255.324C222.86 255.324 223.194 254.951 223.194 254.491C223.194 254.031 222.86 253.659 222.449 253.659C222.038 253.659 221.705 254.031 221.705 254.491C221.705 254.951 222.038 255.324 222.449 255.324Z" fill="#00445C"/>
<path d="M245.024 255.324C245.435 255.324 245.768 254.951 245.768 254.491C245.768 254.031 245.435 253.659 245.024 253.659C244.613 253.659 244.28 254.031 244.28 254.491C244.28 254.951 244.613 255.324 245.024 255.324Z" fill="#00445C"/>
<path d="M267.681 255.324C268.092 255.324 268.425 254.951 268.425 254.491C268.425 254.031 268.092 253.659 267.681 253.659C267.27 253.659 266.937 254.031 266.937 254.491C266.937 254.951 267.27 255.324 267.681 255.324Z" fill="#00445C"/>
<path d="M290.256 255.324C290.667 255.324 291 254.951 291 254.491C291 254.031 290.667 253.659 290.256 253.659C289.845 253.659 289.512 254.031 289.512 254.491C289.512 254.951 289.845 255.324 290.256 255.324Z" fill="#00445C"/>
<path d="M18.8648 280.575C19.2758 280.575 19.609 280.202 19.609 279.743C19.609 279.283 19.2758 278.91 18.8648 278.91C18.4538 278.91 18.1206 279.283 18.1206 279.743C18.1206 280.202 18.4538 280.575 18.8648 280.575Z" fill="#00445C"/>
<path d="M41.4395 280.575C41.8505 280.575 42.1837 280.202 42.1837 279.743C42.1837 279.283 41.8505 278.91 41.4395 278.91C41.0285 278.91 40.6953 279.283 40.6953 279.743C40.6953 280.202 41.0285 280.575 41.4395 280.575Z" fill="#00445C"/>
<path d="M64.0967 280.575C64.5078 280.575 64.841 280.202 64.841 279.743C64.841 279.283 64.5078 278.91 64.0967 278.91C63.6857 278.91 63.3525 279.283 63.3525 279.743C63.3525 280.202 63.6857 280.575 64.0967 280.575Z" fill="#00445C"/>
<path d="M86.754 280.575C87.165 280.575 87.4982 280.202 87.4982 279.743C87.4982 279.283 87.165 278.91 86.754 278.91C86.343 278.91 86.0098 279.283 86.0098 279.743C86.0098 280.202 86.343 280.575 86.754 280.575Z" fill="#00445C"/>
<path d="M109.329 280.575C109.74 280.575 110.073 280.202 110.073 279.743C110.073 279.283 109.74 278.91 109.329 278.91C108.918 278.91 108.584 279.283 108.584 279.743C108.584 280.202 108.918 280.575 109.329 280.575Z" fill="#00445C"/>
<path d="M131.986 280.575C132.397 280.575 132.73 280.202 132.73 279.743C132.73 279.283 132.397 278.91 131.986 278.91C131.575 278.91 131.242 279.283 131.242 279.743C131.242 280.202 131.575 280.575 131.986 280.575Z" fill="#00445C"/>
<path d="M154.56 280.575C154.971 280.575 155.304 280.202 155.304 279.743C155.304 279.283 154.971 278.91 154.56 278.91C154.149 278.91 153.816 279.283 153.816 279.743C153.816 280.202 154.149 280.575 154.56 280.575Z" fill="#00445C"/>
<path d="M177.217 280.575C177.628 280.575 177.962 280.202 177.962 279.743C177.962 279.283 177.628 278.91 177.217 278.91C176.806 278.91 176.473 279.283 176.473 279.743C176.473 280.202 176.806 280.575 177.217 280.575Z" fill="#00445C"/>
<path d="M199.792 280.575C200.203 280.575 200.536 280.202 200.536 279.743C200.536 279.283 200.203 278.91 199.792 278.91C199.381 278.91 199.048 279.283 199.048 279.743C199.048 280.202 199.381 280.575 199.792 280.575Z" fill="#00445C"/>
<path d="M222.449 280.575C222.86 280.575 223.194 280.202 223.194 279.743C223.194 279.283 222.86 278.91 222.449 278.91C222.038 278.91 221.705 279.283 221.705 279.743C221.705 280.202 222.038 280.575 222.449 280.575Z" fill="#00445C"/>
<path d="M245.024 280.575C245.435 280.575 245.768 280.202 245.768 279.743C245.768 279.283 245.435 278.91 245.024 278.91C244.613 278.91 244.28 279.283 244.28 279.743C244.28 280.202 244.613 280.575 245.024 280.575Z" fill="#00445C"/>
<path d="M267.681 280.575C268.092 280.575 268.425 280.202 268.425 279.743C268.425 279.283 268.092 278.91 267.681 278.91C267.27 278.91 266.937 279.283 266.937 279.743C266.937 280.202 267.27 280.575 267.681 280.575Z" fill="#00445C"/>
<path d="M290.256 280.575C290.667 280.575 291 280.202 291 279.743C291 279.283 290.667 278.91 290.256 278.91C289.845 278.91 289.512 279.283 289.512 279.743C289.512 280.202 289.845 280.575 290.256 280.575Z" fill="#00445C"/>
<path d="M18.8648 305.92C19.2758 305.92 19.609 305.547 19.609 305.087C19.609 304.627 19.2758 304.255 18.8648 304.255C18.4538 304.255 18.1206 304.627 18.1206 305.087C18.1206 305.547 18.4538 305.92 18.8648 305.92Z" fill="#00445C"/>
<path d="M41.4395 305.92C41.8505 305.92 42.1837 305.547 42.1837 305.087C42.1837 304.627 41.8505 304.255 41.4395 304.255C41.0285 304.255 40.6953 304.627 40.6953 305.087C40.6953 305.547 41.0285 305.92 41.4395 305.92Z" fill="#00445C"/>
<path d="M64.0967 305.92C64.5078 305.92 64.841 305.547 64.841 305.087C64.841 304.627 64.5078 304.255 64.0967 304.255C63.6857 304.255 63.3525 304.627 63.3525 305.087C63.3525 305.547 63.6857 305.92 64.0967 305.92Z" fill="#00445C"/>
<path d="M86.754 305.92C87.165 305.92 87.4982 305.547 87.4982 305.087C87.4982 304.627 87.165 304.255 86.754 304.255C86.343 304.255 86.0098 304.627 86.0098 305.087C86.0098 305.547 86.343 305.92 86.754 305.92Z" fill="#00445C"/>
<path d="M109.329 305.92C109.74 305.92 110.073 305.547 110.073 305.087C110.073 304.627 109.74 304.255 109.329 304.255C108.918 304.255 108.584 304.627 108.584 305.087C108.584 305.547 108.918 305.92 109.329 305.92Z" fill="#00445C"/>
<path d="M131.986 305.92C132.397 305.92 132.73 305.547 132.73 305.087C132.73 304.627 132.397 304.255 131.986 304.255C131.575 304.255 131.242 304.627 131.242 305.087C131.242 305.547 131.575 305.92 131.986 305.92Z" fill="#00445C"/>
<path d="M154.56 305.92C154.971 305.92 155.304 305.547 155.304 305.087C155.304 304.627 154.971 304.255 154.56 304.255C154.149 304.255 153.816 304.627 153.816 305.087C153.816 305.547 154.149 305.92 154.56 305.92Z" fill="#00445C"/>
<path d="M177.217 305.92C177.628 305.92 177.962 305.547 177.962 305.087C177.962 304.627 177.628 304.255 177.217 304.255C176.806 304.255 176.473 304.627 176.473 305.087C176.473 305.547 176.806 305.92 177.217 305.92Z" fill="#00445C"/>
<path d="M199.792 305.92C200.203 305.92 200.536 305.547 200.536 305.087C200.536 304.627 200.203 304.255 199.792 304.255C199.381 304.255 199.048 304.627 199.048 305.087C199.048 305.547 199.381 305.92 199.792 305.92Z" fill="#00445C"/>
<path d="M222.449 305.92C222.86 305.92 223.194 305.547 223.194 305.087C223.194 304.627 222.86 304.255 222.449 304.255C222.038 304.255 221.705 304.627 221.705 305.087C221.705 305.547 222.038 305.92 222.449 305.92Z" fill="#00445C"/>
<path d="M245.024 305.92C245.435 305.92 245.768 305.547 245.768 305.087C245.768 304.627 245.435 304.255 245.024 304.255C244.613 304.255 244.28 304.627 244.28 305.087C244.28 305.547 244.613 305.92 245.024 305.92Z" fill="#00445C"/>
<path d="M267.681 305.92C268.092 305.92 268.425 305.547 268.425 305.087C268.425 304.627 268.092 304.255 267.681 304.255C267.27 304.255 266.937 304.627 266.937 305.087C266.937 305.547 267.27 305.92 267.681 305.92Z" fill="#00445C"/>
<path d="M290.256 305.92C290.667 305.92 291 305.547 291 305.087C291 304.627 290.667 304.255 290.256 304.255C289.845 304.255 289.512 304.627 289.512 305.087C289.512 305.547 289.845 305.92 290.256 305.92Z" fill="#00445C"/>
<path d="M18.8648 331.172C19.2758 331.172 19.609 330.799 19.609 330.339C19.609 329.879 19.2758 329.507 18.8648 329.507C18.4538 329.507 18.1206 329.879 18.1206 330.339C18.1206 330.799 18.4538 331.172 18.8648 331.172Z" fill="#00445C"/>
<path d="M41.4395 331.172C41.8505 331.172 42.1837 330.799 42.1837 330.339C42.1837 329.879 41.8505 329.507 41.4395 329.507C41.0285 329.507 40.6953 329.879 40.6953 330.339C40.6953 330.799 41.0285 331.172 41.4395 331.172Z" fill="#00445C"/>
<path d="M64.0967 331.172C64.5078 331.172 64.841 330.799 64.841 330.339C64.841 329.879 64.5078 329.507 64.0967 329.507C63.6857 329.507 63.3525 329.879 63.3525 330.339C63.3525 330.799 63.6857 331.172 64.0967 331.172Z" fill="#00445C"/>
<path d="M86.754 331.172C87.165 331.172 87.4982 330.799 87.4982 330.339C87.4982 329.879 87.165 329.507 86.754 329.507C86.343 329.507 86.0098 329.879 86.0098 330.339C86.0098 330.799 86.343 331.172 86.754 331.172Z" fill="#00445C"/>
<path d="M109.329 331.172C109.74 331.172 110.073 330.799 110.073 330.339C110.073 329.879 109.74 329.507 109.329 329.507C108.918 329.507 108.584 329.879 108.584 330.339C108.584 330.799 108.918 331.172 109.329 331.172Z" fill="#00445C"/>
<path d="M131.986 331.172C132.397 331.172 132.73 330.799 132.73 330.339C132.73 329.879 132.397 329.507 131.986 329.507C131.575 329.507 131.242 329.879 131.242 330.339C131.242 330.799 131.575 331.172 131.986 331.172Z" fill="#00445C"/>
<path d="M154.56 331.172C154.971 331.172 155.304 330.799 155.304 330.339C155.304 329.879 154.971 329.507 154.56 329.507C154.149 329.507 153.816 329.879 153.816 330.339C153.816 330.799 154.149 331.172 154.56 331.172Z" fill="#00445C"/>
<path d="M177.217 331.172C177.628 331.172 177.962 330.799 177.962 330.339C177.962 329.879 177.628 329.507 177.217 329.507C176.806 329.507 176.473 329.879 176.473 330.339C176.473 330.799 176.806 331.172 177.217 331.172Z" fill="#00445C"/>
<path d="M199.792 331.172C200.203 331.172 200.536 330.799 200.536 330.339C200.536 329.879 200.203 329.507 199.792 329.507C199.381 329.507 199.048 329.879 199.048 330.339C199.048 330.799 199.381 331.172 199.792 331.172Z" fill="#00445C"/>
<path d="M222.449 331.172C222.86 331.172 223.194 330.799 223.194 330.339C223.194 329.879 222.86 329.507 222.449 329.507C222.038 329.507 221.705 329.879 221.705 330.339C221.705 330.799 222.038 331.172 222.449 331.172Z" fill="#00445C"/>
<path d="M245.024 331.172C245.435 331.172 245.768 330.799 245.768 330.339C245.768 329.879 245.435 329.507 245.024 329.507C244.613 329.507 244.28 329.879 244.28 330.339C244.28 330.799 244.613 331.172 245.024 331.172Z" fill="#00445C"/>
<path d="M267.681 331.172C268.092 331.172 268.425 330.799 268.425 330.339C268.425 329.879 268.092 329.507 267.681 329.507C267.27 329.507 266.937 329.879 266.937 330.339C266.937 330.799 267.27 331.172 267.681 331.172Z" fill="#00445C"/>
<path d="M290.256 331.172C290.667 331.172 291 330.799 291 330.339C291 329.879 290.667 329.507 290.256 329.507C289.845 329.507 289.512 329.879 289.512 330.339C289.512 330.799 289.845 331.172 290.256 331.172Z" fill="#00445C"/>
<path d="M18.8648 356.516C19.2758 356.516 19.609 356.143 19.609 355.684C19.609 355.224 19.2758 354.851 18.8648 354.851C18.4538 354.851 18.1206 355.224 18.1206 355.684C18.1206 356.143 18.4538 356.516 18.8648 356.516Z" fill="#00445C"/>
<path d="M41.4395 356.516C41.8505 356.516 42.1837 356.143 42.1837 355.684C42.1837 355.224 41.8505 354.851 41.4395 354.851C41.0285 354.851 40.6953 355.224 40.6953 355.684C40.6953 356.143 41.0285 356.516 41.4395 356.516Z" fill="#00445C"/>
<path d="M64.0967 356.516C64.5078 356.516 64.841 356.143 64.841 355.684C64.841 355.224 64.5078 354.851 64.0967 354.851C63.6857 354.851 63.3525 355.224 63.3525 355.684C63.3525 356.143 63.6857 356.516 64.0967 356.516Z" fill="#00445C"/>
<path d="M86.754 356.516C87.165 356.516 87.4982 356.143 87.4982 355.684C87.4982 355.224 87.165 354.851 86.754 354.851C86.343 354.851 86.0098 355.224 86.0098 355.684C86.0098 356.143 86.343 356.516 86.754 356.516Z" fill="#00445C"/>
<path d="M109.329 356.516C109.74 356.516 110.073 356.143 110.073 355.684C110.073 355.224 109.74 354.851 109.329 354.851C108.918 354.851 108.584 355.224 108.584 355.684C108.584 356.143 108.918 356.516 109.329 356.516Z" fill="#00445C"/>
<path d="M131.986 356.516C132.397 356.516 132.73 356.143 132.73 355.684C132.73 355.224 132.397 354.851 131.986 354.851C131.575 354.851 131.242 355.224 131.242 355.684C131.242 356.143 131.575 356.516 131.986 356.516Z" fill="#00445C"/>
<path d="M154.56 356.516C154.971 356.516 155.304 356.143 155.304 355.684C155.304 355.224 154.971 354.851 154.56 354.851C154.149 354.851 153.816 355.224 153.816 355.684C153.816 356.143 154.149 356.516 154.56 356.516Z" fill="#00445C"/>
<path d="M177.217 356.516C177.628 356.516 177.962 356.143 177.962 355.684C177.962 355.224 177.628 354.851 177.217 354.851C176.806 354.851 176.473 355.224 176.473 355.684C176.473 356.143 176.806 356.516 177.217 356.516Z" fill="#00445C"/>
<path d="M199.792 356.516C200.203 356.516 200.536 356.143 200.536 355.684C200.536 355.224 200.203 354.851 199.792 354.851C199.381 354.851 199.048 355.224 199.048 355.684C199.048 356.143 199.381 356.516 199.792 356.516Z" fill="#00445C"/>
<path d="M222.449 356.516C222.86 356.516 223.194 356.143 223.194 355.684C223.194 355.224 222.86 354.851 222.449 354.851C222.038 354.851 221.705 355.224 221.705 355.684C221.705 356.143 222.038 356.516 222.449 356.516Z" fill="#00445C"/>
<path d="M245.024 356.516C245.435 356.516 245.768 356.143 245.768 355.684C245.768 355.224 245.435 354.851 245.024 354.851C244.613 354.851 244.28 355.224 244.28 355.684C244.28 356.143 244.613 356.516 245.024 356.516Z" fill="#00445C"/>
<path d="M267.681 356.516C268.092 356.516 268.425 356.143 268.425 355.684C268.425 355.224 268.092 354.851 267.681 354.851C267.27 354.851 266.937 355.224 266.937 355.684C266.937 356.143 267.27 356.516 267.681 356.516Z" fill="#00445C"/>
<path d="M290.256 356.516C290.667 356.516 291 356.143 291 355.684C291 355.224 290.667 354.851 290.256 354.851C289.845 354.851 289.512 355.224 289.512 355.684C289.512 356.143 289.845 356.516 290.256 356.516Z" fill="#00445C"/>
<path d="M18.8648 381.767C19.2758 381.767 19.609 381.395 19.609 380.935C19.609 380.475 19.2758 380.103 18.8648 380.103C18.4538 380.103 18.1206 380.475 18.1206 380.935C18.1206 381.395 18.4538 381.767 18.8648 381.767Z" fill="#00445C"/>
<path d="M41.4395 381.767C41.8505 381.767 42.1837 381.395 42.1837 380.935C42.1837 380.475 41.8505 380.103 41.4395 380.103C41.0285 380.103 40.6953 380.475 40.6953 380.935C40.6953 381.395 41.0285 381.767 41.4395 381.767Z" fill="#00445C"/>
<path d="M64.0967 381.767C64.5078 381.767 64.841 381.395 64.841 380.935C64.841 380.475 64.5078 380.103 64.0967 380.103C63.6857 380.103 63.3525 380.475 63.3525 380.935C63.3525 381.395 63.6857 381.767 64.0967 381.767Z" fill="#00445C"/>
<path d="M86.754 381.767C87.165 381.767 87.4982 381.395 87.4982 380.935C87.4982 380.475 87.165 380.103 86.754 380.103C86.343 380.103 86.0098 380.475 86.0098 380.935C86.0098 381.395 86.343 381.767 86.754 381.767Z" fill="#00445C"/>
<path d="M109.329 381.767C109.74 381.767 110.073 381.395 110.073 380.935C110.073 380.475 109.74 380.103 109.329 380.103C108.918 380.103 108.584 380.475 108.584 380.935C108.584 381.395 108.918 381.767 109.329 381.767Z" fill="#00445C"/>
<path d="M131.986 381.767C132.397 381.767 132.73 381.395 132.73 380.935C132.73 380.475 132.397 380.103 131.986 380.103C131.575 380.103 131.242 380.475 131.242 380.935C131.242 381.395 131.575 381.767 131.986 381.767Z" fill="#00445C"/>
<path d="M154.56 381.767C154.971 381.767 155.304 381.395 155.304 380.935C155.304 380.475 154.971 380.103 154.56 380.103C154.149 380.103 153.816 380.475 153.816 380.935C153.816 381.395 154.149 381.767 154.56 381.767Z" fill="#00445C"/>
<path d="M177.217 381.767C177.628 381.767 177.962 381.395 177.962 380.935C177.962 380.475 177.628 380.103 177.217 380.103C176.806 380.103 176.473 380.475 176.473 380.935C176.473 381.395 176.806 381.767 177.217 381.767Z" fill="#00445C"/>
<path d="M199.792 381.767C200.203 381.767 200.536 381.395 200.536 380.935C200.536 380.475 200.203 380.103 199.792 380.103C199.381 380.103 199.048 380.475 199.048 380.935C199.048 381.395 199.381 381.767 199.792 381.767Z" fill="#00445C"/>
<path d="M222.449 381.767C222.86 381.767 223.194 381.395 223.194 380.935C223.194 380.475 222.86 380.103 222.449 380.103C222.038 380.103 221.705 380.475 221.705 380.935C221.705 381.395 222.038 381.767 222.449 381.767Z" fill="#00445C"/>
<path d="M245.024 381.767C245.435 381.767 245.768 381.395 245.768 380.935C245.768 380.475 245.435 380.103 245.024 380.103C244.613 380.103 244.28 380.475 244.28 380.935C244.28 381.395 244.613 381.767 245.024 381.767Z" fill="#00445C"/>
<path d="M267.681 381.767C268.092 381.767 268.425 381.395 268.425 380.935C268.425 380.475 268.092 380.103 267.681 380.103C267.27 380.103 266.937 380.475 266.937 380.935C266.937 381.395 267.27 381.767 267.681 381.767Z" fill="#00445C"/>
<path d="M290.256 381.767C290.667 381.767 291 381.395 291 380.935C291 380.475 290.667 380.103 290.256 380.103C289.845 380.103 289.512 380.475 289.512 380.935C289.512 381.395 289.845 381.767 290.256 381.767Z" fill="#00445C"/>
<path d="M18.8648 407.112C19.2758 407.112 19.609 406.74 19.609 406.28C19.609 405.82 19.2758 405.447 18.8648 405.447C18.4538 405.447 18.1206 405.82 18.1206 406.28C18.1206 406.74 18.4538 407.112 18.8648 407.112Z" fill="#00445C"/>
<path d="M41.4395 407.112C41.8505 407.112 42.1837 406.74 42.1837 406.28C42.1837 405.82 41.8505 405.447 41.4395 405.447C41.0285 405.447 40.6953 405.82 40.6953 406.28C40.6953 406.74 41.0285 407.112 41.4395 407.112Z" fill="#00445C"/>
<path d="M64.0967 407.112C64.5078 407.112 64.841 406.74 64.841 406.28C64.841 405.82 64.5078 405.447 64.0967 405.447C63.6857 405.447 63.3525 405.82 63.3525 406.28C63.3525 406.74 63.6857 407.112 64.0967 407.112Z" fill="#00445C"/>
<path d="M86.754 407.112C87.165 407.112 87.4982 406.74 87.4982 406.28C87.4982 405.82 87.165 405.447 86.754 405.447C86.343 405.447 86.0098 405.82 86.0098 406.28C86.0098 406.74 86.343 407.112 86.754 407.112Z" fill="#00445C"/>
<path d="M109.329 407.112C109.74 407.112 110.073 406.74 110.073 406.28C110.073 405.82 109.74 405.447 109.329 405.447C108.918 405.447 108.584 405.82 108.584 406.28C108.584 406.74 108.918 407.112 109.329 407.112Z" fill="#00445C"/>
<path d="M131.986 407.112C132.397 407.112 132.73 406.74 132.73 406.28C132.73 405.82 132.397 405.447 131.986 405.447C131.575 405.447 131.242 405.82 131.242 406.28C131.242 406.74 131.575 407.112 131.986 407.112Z" fill="#00445C"/>
<path d="M154.56 407.112C154.971 407.112 155.304 406.74 155.304 406.28C155.304 405.82 154.971 405.447 154.56 405.447C154.149 405.447 153.816 405.82 153.816 406.28C153.816 406.74 154.149 407.112 154.56 407.112Z" fill="#00445C"/>
<path d="M177.217 407.112C177.628 407.112 177.962 406.74 177.962 406.28C177.962 405.82 177.628 405.447 177.217 405.447C176.806 405.447 176.473 405.82 176.473 406.28C176.473 406.74 176.806 407.112 177.217 407.112Z" fill="#00445C"/>
<path d="M199.792 407.112C200.203 407.112 200.536 406.74 200.536 406.28C200.536 405.82 200.203 405.447 199.792 405.447C199.381 405.447 199.048 405.82 199.048 406.28C199.048 406.74 199.381 407.112 199.792 407.112Z" fill="#00445C"/>
<path d="M222.449 407.112C222.86 407.112 223.194 406.74 223.194 406.28C223.194 405.82 222.86 405.447 222.449 405.447C222.038 405.447 221.705 405.82 221.705 406.28C221.705 406.74 222.038 407.112 222.449 407.112Z" fill="#00445C"/>
<path d="M245.024 407.112C245.435 407.112 245.768 406.74 245.768 406.28C245.768 405.82 245.435 405.447 245.024 405.447C244.613 405.447 244.28 405.82 244.28 406.28C244.28 406.74 244.613 407.112 245.024 407.112Z" fill="#00445C"/>
<path d="M267.681 407.112C268.092 407.112 268.425 406.74 268.425 406.28C268.425 405.82 268.092 405.447 267.681 405.447C267.27 405.447 266.937 405.82 266.937 406.28C266.937 406.74 267.27 407.112 267.681 407.112Z" fill="#00445C"/>
<path d="M290.256 407.112C290.667 407.112 291 406.74 291 406.28C291 405.82 290.667 405.447 290.256 405.447C289.845 405.447 289.512 405.82 289.512 406.28C289.512 406.74 289.845 407.112 290.256 407.112Z" fill="#00445C"/>
<path d="M18.8648 432.364C19.2758 432.364 19.609 431.991 19.609 431.531C19.609 431.072 19.2758 430.699 18.8648 430.699C18.4538 430.699 18.1206 431.072 18.1206 431.531C18.1206 431.991 18.4538 432.364 18.8648 432.364Z" fill="#00445C"/>
<path d="M41.4395 432.364C41.8505 432.364 42.1837 431.991 42.1837 431.531C42.1837 431.072 41.8505 430.699 41.4395 430.699C41.0285 430.699 40.6953 431.072 40.6953 431.531C40.6953 431.991 41.0285 432.364 41.4395 432.364Z" fill="#00445C"/>
<path d="M64.0967 432.364C64.5078 432.364 64.841 431.991 64.841 431.531C64.841 431.072 64.5078 430.699 64.0967 430.699C63.6857 430.699 63.3525 431.072 63.3525 431.531C63.3525 431.991 63.6857 432.364 64.0967 432.364Z" fill="#00445C"/>
<path d="M86.754 432.364C87.165 432.364 87.4982 431.991 87.4982 431.531C87.4982 431.072 87.165 430.699 86.754 430.699C86.343 430.699 86.0098 431.072 86.0098 431.531C86.0098 431.991 86.343 432.364 86.754 432.364Z" fill="#00445C"/>
<path d="M109.329 432.364C109.74 432.364 110.073 431.991 110.073 431.531C110.073 431.072 109.74 430.699 109.329 430.699C108.918 430.699 108.584 431.072 108.584 431.531C108.584 431.991 108.918 432.364 109.329 432.364Z" fill="#00445C"/>
<path d="M131.986 432.364C132.397 432.364 132.73 431.991 132.73 431.531C132.73 431.072 132.397 430.699 131.986 430.699C131.575 430.699 131.242 431.072 131.242 431.531C131.242 431.991 131.575 432.364 131.986 432.364Z" fill="#00445C"/>
<path d="M154.56 432.364C154.971 432.364 155.304 431.991 155.304 431.531C155.304 431.072 154.971 430.699 154.56 430.699C154.149 430.699 153.816 431.072 153.816 431.531C153.816 431.991 154.149 432.364 154.56 432.364Z" fill="#00445C"/>
<path d="M177.217 432.364C177.628 432.364 177.962 431.991 177.962 431.531C177.962 431.072 177.628 430.699 177.217 430.699C176.806 430.699 176.473 431.072 176.473 431.531C176.473 431.991 176.806 432.364 177.217 432.364Z" fill="#00445C"/>
<path d="M199.792 432.364C200.203 432.364 200.536 431.991 200.536 431.531C200.536 431.072 200.203 430.699 199.792 430.699C199.381 430.699 199.048 431.072 199.048 431.531C199.048 431.991 199.381 432.364 199.792 432.364Z" fill="#00445C"/>
<path d="M222.449 432.364C222.86 432.364 223.194 431.991 223.194 431.531C223.194 431.072 222.86 430.699 222.449 430.699C222.038 430.699 221.705 431.072 221.705 431.531C221.705 431.991 222.038 432.364 222.449 432.364Z" fill="#00445C"/>
<path d="M245.024 432.364C245.435 432.364 245.768 431.991 245.768 431.531C245.768 431.072 245.435 430.699 245.024 430.699C244.613 430.699 244.28 431.072 244.28 431.531C244.28 431.991 244.613 432.364 245.024 432.364Z" fill="#00445C"/>
<path d="M267.681 432.364C268.092 432.364 268.425 431.991 268.425 431.531C268.425 431.072 268.092 430.699 267.681 430.699C267.27 430.699 266.937 431.072 266.937 431.531C266.937 431.991 267.27 432.364 267.681 432.364Z" fill="#00445C"/>
<path d="M290.256 432.364C290.667 432.364 291 431.991 291 431.531C291 431.072 290.667 430.699 290.256 430.699C289.845 430.699 289.512 431.072 289.512 431.531C289.512 431.991 289.845 432.364 290.256 432.364Z" fill="#00445C"/>
</svg>
