<svg width="33" height="37" viewBox="0 0 33 37" fill="none" xmlns="http://www.w3.org/2000/svg">
<path d="M7.72462 14.022L15.6764 9.51267L9.45698 6.00543C8.15061 5.28172 6.56024 5.28172 5.28228 6.00543L2.10155 7.81472C0.795181 8.53844 0 9.90237 0 11.3776V25.6014C0 27.0767 0.795181 28.4128 2.10155 29.1644L15.4208 36.7077C16.1024 37.0974 16.926 37.0974 17.6076 36.7077L23.8554 33.1726L7.72462 24.0427V14.022Z" fill="white"/>
<path d="M15.4208 0.271394L8.77539 4.02915L25.2754 13.3818V23.0406L17.0396 27.7169L23.1739 31.1685C24.4802 31.8922 26.0706 31.8922 27.3486 31.1685L30.8985 29.1644C32.2049 28.4407 33.0001 27.0767 33.0001 25.6015V11.3777C33.0001 9.90239 32.2049 8.5663 30.8985 7.81474L17.6076 0.271394C16.926 -0.0904645 16.1024 -0.0904645 15.4208 0.271394Z" fill="white"/>
</svg>
