<svg width="31" height="31" viewBox="0 0 31 31" fill="none" xmlns="http://www.w3.org/2000/svg">
<path d="M11.5601 13.1323H8.79004V22.1649H11.5601V13.1323Z" fill="white"/>
<path d="M10.1861 8.61621C9.29181 8.61621 8.57202 9.33969 8.57202 10.2386C8.57202 11.1374 9.29181 11.8609 10.1861 11.8609C11.0804 11.8609 11.8001 11.1374 11.8001 10.2386C11.8001 9.33969 11.0804 8.61621 10.1861 8.61621Z" fill="white"/>
<path d="M18.7146 12.8251C17.6458 12.7813 16.6206 13.3513 16.0753 14.2721H16.0317V13.1101H13.2834V22.1427H16.0535V17.6483C16.0972 16.4644 16.3371 15.3244 17.7766 15.3244C19.2162 15.3244 19.2162 16.6618 19.1726 17.7141V22.055H22.0517V17.1221C22.0517 14.6886 21.5283 12.8251 18.7146 12.8251Z" fill="white"/>
<path d="M27.4391 0H3.40262C1.52682 0 0 1.53465 0 3.42009V27.558C0 29.4434 1.52682 30.9781 3.40262 30.9781H27.4172C29.293 30.9781 30.8199 29.4434 30.8199 27.558V3.42009C30.8417 1.53465 29.3149 0 27.4391 0ZM24.8217 23.5898C24.8217 24.3571 24.1891 24.971 23.4257 24.9491H7.39415C6.63074 24.9491 6.02002 24.3571 5.9982 23.5898V7.41018C5.9982 6.64286 6.63074 6.029 7.39415 6.05092H23.4257C24.1891 6.05092 24.7998 6.64286 24.8217 7.41018V23.5898Z" fill="white"/>
</svg>
